<mxfile host="app.diagrams.net" agent="Mozilla/5.0 (Windows NT 10.0; Win64; x64) AppleWebKit/537.36 (KHTML, like Gecko) Chrome/131.0.0.0 Safari/537.36" version="26.0.2">
  <diagram name="Page-1" id="0FFAost96XIiCVZfgAwb">
    <mxGraphModel dx="1050" dy="557" grid="0" gridSize="14" guides="1" tooltips="1" connect="1" arrows="1" fold="1" page="0" pageScale="1" pageWidth="850" pageHeight="1100" background="#ffffff" math="0" shadow="1">
      <root>
        <mxCell id="0" />
        <mxCell id="1" parent="0" />
        <mxCell id="GhYstoaCbRWL_btryWHg-8" style="edgeStyle=orthogonalEdgeStyle;rounded=0;orthogonalLoop=1;jettySize=auto;html=1;flowAnimation=1;shadow=1;" edge="1" parent="1" source="GhYstoaCbRWL_btryWHg-2" target="GhYstoaCbRWL_btryWHg-4">
          <mxGeometry relative="1" as="geometry">
            <Array as="points">
              <mxPoint x="782" y="292" />
              <mxPoint x="782" y="292" />
            </Array>
          </mxGeometry>
        </mxCell>
        <mxCell id="GhYstoaCbRWL_btryWHg-11" style="edgeStyle=orthogonalEdgeStyle;rounded=0;orthogonalLoop=1;jettySize=auto;html=1;flowAnimation=1;shadow=1;" edge="1" parent="1" source="GhYstoaCbRWL_btryWHg-2">
          <mxGeometry relative="1" as="geometry">
            <mxPoint x="822" y="150" as="targetPoint" />
            <Array as="points">
              <mxPoint x="752" y="292" />
              <mxPoint x="752" y="150" />
              <mxPoint x="812" y="150" />
            </Array>
          </mxGeometry>
        </mxCell>
        <mxCell id="GhYstoaCbRWL_btryWHg-12" style="edgeStyle=orthogonalEdgeStyle;rounded=0;orthogonalLoop=1;jettySize=auto;html=1;entryX=0;entryY=0.5;entryDx=0;entryDy=0;entryPerimeter=0;flowAnimation=1;shadow=1;" edge="1" parent="1" source="GhYstoaCbRWL_btryWHg-2" target="GhYstoaCbRWL_btryWHg-5">
          <mxGeometry relative="1" as="geometry">
            <mxPoint x="752" y="400" as="targetPoint" />
            <Array as="points">
              <mxPoint x="752" y="292" />
              <mxPoint x="752" y="400" />
            </Array>
          </mxGeometry>
        </mxCell>
        <mxCell id="GhYstoaCbRWL_btryWHg-2" value="&lt;span style=&quot;background-color: light-dark(#ffffff, var(--ge-dark-color, #121212));&quot;&gt;Control Plane&lt;span style=&quot;white-space: pre;&quot;&gt;&#x9;&lt;/span&gt;&lt;/span&gt;" style="sketch=0;outlineConnect=0;fontColor=#232F3E;gradientColor=none;strokeColor=#ffffff;fillColor=#232F3E;dashed=0;verticalLabelPosition=middle;verticalAlign=bottom;align=center;html=1;whiteSpace=wrap;fontSize=10;fontStyle=1;spacing=3;shape=mxgraph.aws4.productIcon;prIcon=mxgraph.aws4.eks;" vertex="1" parent="1">
          <mxGeometry x="642" y="234" width="80" height="100" as="geometry" />
        </mxCell>
        <mxCell id="GhYstoaCbRWL_btryWHg-3" value="" style="sketch=0;points=[[0,0,0],[0.25,0,0],[0.5,0,0],[0.75,0,0],[1,0,0],[0,1,0],[0.25,1,0],[0.5,1,0],[0.75,1,0],[1,1,0],[0,0.25,0],[0,0.5,0],[0,0.75,0],[1,0.25,0],[1,0.5,0],[1,0.75,0]];outlineConnect=0;fontColor=#232F3E;fillColor=#ED7100;strokeColor=#ffffff;dashed=0;verticalLabelPosition=bottom;verticalAlign=top;align=center;html=1;fontSize=12;fontStyle=0;aspect=fixed;shape=mxgraph.aws4.resourceIcon;resIcon=mxgraph.aws4.ec2;" vertex="1" parent="1">
          <mxGeometry x="822" y="110" width="78" height="78" as="geometry" />
        </mxCell>
        <mxCell id="GhYstoaCbRWL_btryWHg-4" value="" style="sketch=0;points=[[0,0,0],[0.25,0,0],[0.5,0,0],[0.75,0,0],[1,0,0],[0,1,0],[0.25,1,0],[0.5,1,0],[0.75,1,0],[1,1,0],[0,0.25,0],[0,0.5,0],[0,0.75,0],[1,0.25,0],[1,0.5,0],[1,0.75,0]];outlineConnect=0;fontColor=#232F3E;fillColor=#ED7100;strokeColor=#ffffff;dashed=0;verticalLabelPosition=bottom;verticalAlign=top;align=center;html=1;fontSize=12;fontStyle=0;aspect=fixed;shape=mxgraph.aws4.resourceIcon;resIcon=mxgraph.aws4.ec2;" vertex="1" parent="1">
          <mxGeometry x="822" y="230" width="78" height="78" as="geometry" />
        </mxCell>
        <mxCell id="GhYstoaCbRWL_btryWHg-5" value="" style="sketch=0;points=[[0,0,0],[0.25,0,0],[0.5,0,0],[0.75,0,0],[1,0,0],[0,1,0],[0.25,1,0],[0.5,1,0],[0.75,1,0],[1,1,0],[0,0.25,0],[0,0.5,0],[0,0.75,0],[1,0.25,0],[1,0.5,0],[1,0.75,0]];outlineConnect=0;fontColor=#232F3E;fillColor=#ED7100;strokeColor=#ffffff;dashed=0;verticalLabelPosition=bottom;verticalAlign=top;align=center;html=1;fontSize=12;fontStyle=0;aspect=fixed;shape=mxgraph.aws4.resourceIcon;resIcon=mxgraph.aws4.ec2;" vertex="1" parent="1">
          <mxGeometry x="822" y="360" width="80" height="80" as="geometry" />
        </mxCell>
        <mxCell id="GhYstoaCbRWL_btryWHg-13" value="" style="sketch=0;aspect=fixed;pointerEvents=1;shadow=0;dashed=0;html=1;strokeColor=none;labelPosition=center;verticalLabelPosition=bottom;verticalAlign=top;align=center;fillColor=#00188D;shape=mxgraph.azure.laptop" vertex="1" parent="1">
          <mxGeometry x="78" y="276" width="280" height="168" as="geometry" />
        </mxCell>
        <mxCell id="GhYstoaCbRWL_btryWHg-14" value="&lt;b&gt;Docker Files&lt;/b&gt;" style="verticalLabelPosition=bottom;html=1;verticalAlign=top;align=center;strokeColor=none;fillColor=#00BEF2;shape=mxgraph.azure.visual_studio_online;" vertex="1" parent="1">
          <mxGeometry x="152" y="290" width="50" height="30" as="geometry" />
        </mxCell>
        <mxCell id="GhYstoaCbRWL_btryWHg-21" style="edgeStyle=orthogonalEdgeStyle;rounded=0;orthogonalLoop=1;jettySize=auto;html=1;entryX=0.25;entryY=0;entryDx=0;entryDy=0;flowAnimation=1;shadow=1;" edge="1" parent="1" source="GhYstoaCbRWL_btryWHg-17" target="GhYstoaCbRWL_btryWHg-19">
          <mxGeometry relative="1" as="geometry" />
        </mxCell>
        <mxCell id="GhYstoaCbRWL_btryWHg-17" value="" style="verticalLabelPosition=bottom;html=1;verticalAlign=top;align=center;strokeColor=none;fillColor=#00BEF2;shape=mxgraph.azure.github_code;pointerEvents=1;" vertex="1" parent="1">
          <mxGeometry x="152" y="80" width="70" height="70" as="geometry" />
        </mxCell>
        <mxCell id="GhYstoaCbRWL_btryWHg-18" style="edgeStyle=orthogonalEdgeStyle;rounded=0;orthogonalLoop=1;jettySize=auto;html=1;entryX=0.4;entryY=1.003;entryDx=0;entryDy=0;entryPerimeter=0;flowAnimation=1;shadow=1;" edge="1" parent="1" target="GhYstoaCbRWL_btryWHg-17">
          <mxGeometry relative="1" as="geometry">
            <mxPoint x="177" y="274" as="sourcePoint" />
            <Array as="points">
              <mxPoint x="180" y="230" />
              <mxPoint x="180" y="230" />
            </Array>
          </mxGeometry>
        </mxCell>
        <mxCell id="GhYstoaCbRWL_btryWHg-19" value="&lt;b&gt;Work Station&lt;/b&gt;" style="whiteSpace=wrap;html=1;fillColor=#d5e8d4;strokeColor=#82b366;" vertex="1" parent="1">
          <mxGeometry x="382" y="208" width="200" height="152" as="geometry" />
        </mxCell>
        <mxCell id="GhYstoaCbRWL_btryWHg-31" style="edgeStyle=orthogonalEdgeStyle;rounded=0;orthogonalLoop=1;jettySize=auto;html=1;flowAnimation=1;shadow=1;" edge="1" parent="1" source="GhYstoaCbRWL_btryWHg-20" target="GhYstoaCbRWL_btryWHg-22">
          <mxGeometry relative="1" as="geometry">
            <Array as="points">
              <mxPoint x="472" y="250" />
            </Array>
          </mxGeometry>
        </mxCell>
        <mxCell id="GhYstoaCbRWL_btryWHg-20" value="" style="image;sketch=0;aspect=fixed;html=1;points=[];align=center;fontSize=12;image=img/lib/mscae/Docker.svg;" vertex="1" parent="1">
          <mxGeometry x="402" y="229" width="50" height="41" as="geometry" />
        </mxCell>
        <mxCell id="GhYstoaCbRWL_btryWHg-32" style="edgeStyle=orthogonalEdgeStyle;rounded=0;orthogonalLoop=1;jettySize=auto;html=1;flowAnimation=1;shadow=1;" edge="1" parent="1" source="GhYstoaCbRWL_btryWHg-22">
          <mxGeometry relative="1" as="geometry">
            <mxPoint x="752" y="150" as="targetPoint" />
          </mxGeometry>
        </mxCell>
        <mxCell id="GhYstoaCbRWL_btryWHg-22" value="" style="image;sketch=0;aspect=fixed;html=1;points=[];align=center;fontSize=12;image=img/lib/mscae/Docker.svg;imageBorder=none;" vertex="1" parent="1">
          <mxGeometry x="445.41" y="70" width="73.17" height="60" as="geometry" />
        </mxCell>
        <mxCell id="GhYstoaCbRWL_btryWHg-29" style="edgeStyle=orthogonalEdgeStyle;rounded=0;orthogonalLoop=1;jettySize=auto;html=1;flowAnimation=1;shadow=1;" edge="1" parent="1" source="GhYstoaCbRWL_btryWHg-23" target="GhYstoaCbRWL_btryWHg-2">
          <mxGeometry relative="1" as="geometry" />
        </mxCell>
        <mxCell id="GhYstoaCbRWL_btryWHg-23" value="&lt;b&gt;Kubeclt&lt;/b&gt;" style="ellipse;whiteSpace=wrap;html=1;fillColor=#f8cecc;strokeColor=#b85450;" vertex="1" parent="1">
          <mxGeometry x="487" y="220" width="75" height="50" as="geometry" />
        </mxCell>
        <mxCell id="GhYstoaCbRWL_btryWHg-33" style="edgeStyle=orthogonalEdgeStyle;rounded=0;orthogonalLoop=1;jettySize=auto;html=1;flowAnimation=1;shadow=1;" edge="1" parent="1" source="GhYstoaCbRWL_btryWHg-26" target="GhYstoaCbRWL_btryWHg-19">
          <mxGeometry relative="1" as="geometry" />
        </mxCell>
        <mxCell id="GhYstoaCbRWL_btryWHg-26" value="&lt;b&gt;AWS Configure&lt;/b&gt;" style="rounded=1;whiteSpace=wrap;html=1;fillColor=#fff2cc;strokeColor=#d6b656;" vertex="1" parent="1">
          <mxGeometry x="382" y="390" width="200" height="30" as="geometry" />
        </mxCell>
        <mxCell id="GhYstoaCbRWL_btryWHg-30" value="" style="edgeStyle=orthogonalEdgeStyle;rounded=0;orthogonalLoop=1;jettySize=auto;html=1;flowAnimation=1;shadow=1;" edge="1" parent="1" source="GhYstoaCbRWL_btryWHg-27" target="GhYstoaCbRWL_btryWHg-2">
          <mxGeometry relative="1" as="geometry" />
        </mxCell>
        <mxCell id="GhYstoaCbRWL_btryWHg-27" value="&lt;b&gt;Eksctl&lt;/b&gt;" style="ellipse;whiteSpace=wrap;html=1;fillColor=#f8cecc;strokeColor=#b85450;" vertex="1" parent="1">
          <mxGeometry x="482" y="300" width="80" height="50" as="geometry" />
        </mxCell>
        <mxCell id="GhYstoaCbRWL_btryWHg-34" style="edgeStyle=orthogonalEdgeStyle;rounded=0;orthogonalLoop=1;jettySize=auto;html=1;entryX=0.358;entryY=0.009;entryDx=0;entryDy=0;entryPerimeter=0;flowAnimation=1;shadow=1;" edge="1" parent="1" source="GhYstoaCbRWL_btryWHg-17" target="GhYstoaCbRWL_btryWHg-19">
          <mxGeometry relative="1" as="geometry">
            <Array as="points">
              <mxPoint x="454" y="130" />
            </Array>
          </mxGeometry>
        </mxCell>
        <mxCell id="GhYstoaCbRWL_btryWHg-35" value="&lt;b&gt;Pull Images&lt;/b&gt;" style="text;html=1;align=center;verticalAlign=middle;resizable=0;points=[];autosize=1;strokeColor=none;fillColor=none;" vertex="1" parent="1">
          <mxGeometry x="567" y="78" width="90" height="30" as="geometry" />
        </mxCell>
        <mxCell id="GhYstoaCbRWL_btryWHg-36" value="&lt;b&gt;Manifests&lt;/b&gt;" style="verticalLabelPosition=bottom;html=1;verticalAlign=top;align=center;strokeColor=none;fillColor=#00BEF2;shape=mxgraph.azure.visual_studio_online;" vertex="1" parent="1">
          <mxGeometry x="252" y="290" width="50" height="37.5" as="geometry" />
        </mxCell>
        <mxCell id="GhYstoaCbRWL_btryWHg-37" value="&lt;b&gt;Laptop&lt;/b&gt;" style="text;html=1;align=center;verticalAlign=middle;resizable=0;points=[];autosize=1;strokeColor=none;fillColor=none;" vertex="1" parent="1">
          <mxGeometry x="192" y="448" width="60" height="30" as="geometry" />
        </mxCell>
      </root>
    </mxGraphModel>
  </diagram>
</mxfile>
